<?xml version="1.0" standalone="no"?>
<!DOCTYPE svg PUBLIC "-//W3C//DTD SVG 20010904//EN"
 "http://www.w3.org/TR/2001/REC-SVG-20010904/DTD/svg10.dtd">
<svg version="1.0" xmlns="http://www.w3.org/2000/svg"
 width="200.000000pt" height="200.000000pt" viewBox="0 0 200.000000 200.000000"
 preserveAspectRatio="xMidYMid meet">

<g transform="translate(0.000000,200.000000) scale(0.100000,-0.100000)"
fill="#000000" stroke="none">
<path d="M860 1800 c-36 -4 -77 -12 -91 -18 -38 -15 -85 -58 -97 -89 -37 -92
-127 -481 -182 -783 -18 -96 -36 -179 -41 -185 -5 -5 -53 -16 -106 -25 -89
-14 -98 -18 -104 -40 -12 -42 -10 -97 3 -108 20 -15 467 -160 581 -187 56 -14
123 -25 149 -25 81 0 745 140 786 166 33 21 45 60 32 100 -13 39 -37 56 -114
80 -37 12 -62 26 -67 39 -5 11 -66 217 -134 458 -140 492 -165 556 -228 588
-62 32 -241 45 -387 29z m110 -50 c-181 -10 -245 -33 -205 -74 36 -36 355 -48
442 -16 59 22 46 64 -25 75 -62 10 -69 14 -18 11 64 -5 96 -30 123 -98 12 -30
59 -183 103 -339 164 -574 179 -622 208 -646 31 -26 36 -24 -113 -57 -288 -64
-328 -70 -455 -70 -112 0 -152 5 -379 52 -140 29 -261 57 -269 61 -11 6 0 11
36 16 28 4 57 14 66 24 9 9 30 95 50 207 64 342 157 741 183 784 34 59 100 78
263 77 l115 0 -125 -7z m220 -48 c24 -9 24 -10 -15 -18 -82 -18 -402 -7 -382
12 23 23 343 28 397 6z"/>
</g>
</svg>
